<?xml version="1.0" standalone="no"?>
<!DOCTYPE svg PUBLIC "-//W3C//DTD SVG 20010904//EN"
 "http://www.w3.org/TR/2001/REC-SVG-20010904/DTD/svg10.dtd">
<svg version="1.0" xmlns="http://www.w3.org/2000/svg"
 width="320.000000pt" height="320.000000pt" viewBox="0 0 320.000000 320.000000"
 preserveAspectRatio="xMidYMid meet">
<metadata>
Created by potrace 1.11, written by Peter Selinger 2001-2013
</metadata>
<g transform="translate(0.000000,320.000000) scale(0.100000,-0.100000)"
fill="#000000" stroke="none">
<path d="M0 1600 l0 -1600 1600 0 1600 0 0 1600 0 1600 -1600 0 -1600 0 0
-1600z m1215 1076 c89 -31 171 -74 221 -119 l34 -29 0 -134 0 -134 -74 0 -74
0 -18 101 c-16 92 -20 103 -49 125 -61 46 -139 67 -265 68 -135 1 -194 -15
-259 -70 -57 -49 -81 -100 -81 -170 0 -137 86 -204 358 -280 299 -84 447 -201
482 -384 33 -167 -54 -328 -218 -406 -31 -15 -59 -29 -60 -30 -6 -4 182 -484
189 -484 3 0 92 222 197 492 l191 493 170 3 171 2 0 -54 0 -55 -47 -7 c-27 -4
-58 -11 -71 -15 l-22 -9 2 -477 3 -478 65 -10 65 -10 3 -52 3 -53 -215 0 -216
0 0 50 c0 55 -3 53 90 68 l45 8 7 414 c4 228 7 421 5 429 -1 7 -90 -207 -198
-475 l-195 -489 -54 0 -53 0 -137 340 c-75 187 -142 340 -148 339 -7 -1 -32
-2 -57 -2 l-45 -2 2 -277 3 -278 65 -10 65 -10 3 -52 3 -53 -215 0 -216 0 0
50 c0 55 -3 53 90 68 l45 8 0 283 0 284 -60 18 c-108 31 -204 82 -266 142 -25
24 -26 29 -32 183 -4 105 -2 163 5 172 8 9 72 12 286 10 l275 -3 65 -170 c36
-93 67 -172 69 -174 6 -9 63 23 91 52 68 70 81 166 35 258 -47 91 -125 133
-383 204 -201 55 -349 155 -407 273 -24 50 -28 69 -28 147 0 82 3 97 33 157
39 81 108 145 199 189 98 47 169 59 318 55 110 -3 143 -7 210 -30z m585 -360
c0 -47 -4 -88 -10 -91 -5 -3 -10 -1 -10 4 0 8 -6 7 -18 0 -48 -30 -105 24 -86
79 12 33 56 52 84 34 18 -11 20 -9 20 23 0 19 5 35 10 35 6 0 10 -35 10 -84z
m345 64 c3 -5 1 -10 -4 -10 -6 0 -11 5 -11 10 0 6 2 10 4 10 3 0 8 -4 11 -10z
m-205 -50 c36 -36 26 -50 -35 -50 -30 0 -55 -4 -55 -8 0 -16 25 -32 50 -32 14
0 31 5 38 12 9 9 12 9 12 0 0 -14 -32 -32 -59 -32 -20 0 -61 43 -61 65 0 7 9
24 21 39 25 31 61 34 89 6z m137 5 c2 -6 -9 -10 -24 -10 -41 0 -43 -17 -3 -30
37 -13 49 -37 30 -60 -16 -19 -51 -19 -76 -1 -17 13 -15 14 25 9 38 -5 43 -4
39 13 -2 10 -14 21 -27 24 -55 13 -54 74 1 68 17 -2 33 -8 35 -13z m73 -50 c0
-30 -4 -57 -10 -60 -6 -4 -10 18 -10 60 0 42 4 64 10 60 6 -3 10 -30 10 -60z
m138 53 c9 -9 12 -9 12 1 0 7 5 9 10 6 14 -9 13 -108 -2 -140 -13 -28 -48 -42
-75 -29 -15 6 -12 9 12 12 36 5 55 19 55 40 0 12 -3 13 -12 4 -20 -20 -55 -13
-77 14 -12 15 -21 32 -21 39 0 7 9 24 21 39 22 27 57 34 77 14z m173 -4 c14
-12 19 -31 19 -68 0 -62 -17 -51 -22 14 -3 39 -6 45 -27 48 -30 5 -41 -12 -41
-66 0 -26 -4 -41 -10 -37 -10 6 -15 107 -5 116 12 13 70 8 86 -7z m169 -4 c36
-36 26 -50 -35 -50 -30 0 -55 -4 -55 -8 0 -16 25 -32 50 -32 14 0 31 5 38 12
9 9 12 9 12 0 0 -14 -32 -32 -59 -32 -20 0 -61 43 -61 65 0 7 9 24 21 39 25
31 61 34 89 6z m80 8 c0 -9 3 -9 12 0 15 15 38 16 38 2 0 -5 -7 -10 -15 -10
-20 0 -35 -32 -35 -74 0 -20 -4 -36 -10 -36 -6 0 -10 28 -10 65 0 37 4 65 10
65 6 0 10 -5 10 -12z m-750 -298 c0 -43 -4 -82 -10 -85 -6 -4 -10 27 -10 85 0
58 4 89 10 85 6 -3 10 -42 10 -85z m160 3 l0 -88 -44 -3 c-38 -2 -48 2 -65 24
-26 34 -26 45 1 79 18 23 27 26 55 22 31 -5 33 -4 33 24 0 16 5 29 10 29 6 0
10 -36 10 -87z m530 56 c0 -10 5 -19 11 -19 8 0 8 -5 -1 -15 -8 -10 -11 -33
-8 -65 4 -35 2 -50 -6 -47 -6 2 -12 26 -14 53 -2 27 -9 52 -15 57 -9 7 -9 10
1 14 6 2 12 16 12 29 0 14 4 22 10 19 6 -3 10 -15 10 -26z m90 3 c0 -26 3 -28
28 -24 43 6 62 -19 62 -81 0 -62 -17 -52 -22 13 -3 39 -6 45 -27 48 -30 5 -41
-12 -41 -65 0 -24 -4 -43 -10 -43 -6 0 -10 37 -10 90 0 53 4 90 10 90 6 0 10
-13 10 -28z m-175 8 c3 -5 1 -10 -4 -10 -6 0 -11 5 -11 10 0 6 2 10 4 10 3 0
8 -4 11 -10z m-877 -42 c9 -9 12 -9 12 1 0 7 5 9 10 6 14 -9 13 -108 -2 -140
-13 -28 -48 -42 -75 -29 -15 6 -12 9 12 12 36 5 55 19 55 40 0 12 -3 13 -12 4
-20 -20 -55 -13 -77 14 -12 15 -21 32 -21 39 0 7 9 24 21 39 22 27 57 34 77
14z m182 -8 c39 -39 11 -110 -44 -110 -25 0 -66 41 -66 65 0 7 9 24 21 39 25
31 61 34 89 6z m377 5 c2 -6 -9 -10 -24 -10 -41 0 -43 -17 -3 -30 37 -13 49
-37 30 -60 -16 -19 -51 -19 -76 -1 -17 13 -15 14 25 9 38 -5 43 -4 39 13 -2
10 -14 21 -27 24 -55 13 -54 74 1 68 17 -2 33 -8 35 -13z m140 4 c10 -9 17 -9
25 -1 17 17 48 15 70 -5 13 -11 18 -30 18 -67 0 -62 -17 -51 -22 14 -3 39 -6
45 -27 48 -30 5 -41 -12 -41 -65 0 -61 -18 -53 -22 10 -3 46 -6 52 -27 55 -30
5 -41 -12 -41 -66 0 -26 -4 -41 -10 -37 -10 6 -15 107 -5 116 10 10 68 9 82
-2z m183 -54 c0 -30 -4 -57 -10 -60 -6 -4 -10 18 -10 60 0 42 4 64 10 60 6 -3
10 -30 10 -60z"/>
<path d="M615 1539 c13 -96 16 -101 91 -141 106 -58 104 -59 104 77 l0 115
-101 0 -101 0 7 -51z"/>
<path d="M952 1405 c3 -68 4 -70 31 -73 33 -4 33 0 5 69 -32 81 -39 82 -36 4z"/>
<path d="M1702 2318 c-7 -7 -12 -21 -12 -33 0 -47 62 -63 81 -21 22 47 -33 90
-69 54z"/>
<path d="M1867 2323 c-16 -15 -4 -23 34 -23 36 0 40 2 29 15 -13 15 -51 20
-63 8z"/>
<path d="M2222 2318 c-30 -30 -3 -82 40 -76 29 4 47 50 28 72 -15 19 -51 21
-68 4z"/>
<path d="M2557 2323 c-16 -15 -4 -23 34 -23 36 0 40 2 29 15 -13 15 -51 20
-63 8z"/>
<path d="M2019 2039 c-16 -30 3 -69 34 -69 29 0 47 17 47 45 0 45 -60 63 -81
24z"/>
<path d="M1622 2048 c-30 -30 -3 -82 40 -76 29 4 47 50 28 72 -15 19 -51 21
-68 4z"/>
<path d="M1789 2039 c-16 -30 3 -69 34 -69 29 0 47 17 47 45 0 45 -60 63 -81
24z"/>
</g>
</svg>
